  0
SECTION
  2
HEADER
  9
$ACADVER
  1
AC1014
  9
$HANDSEED
  5
FFFF
  9
$MEASUREMENT
 70
     1
  0
ENDSEC
  0
SECTION
  2
TABLES
  0
TABLE
  2
VPORT
  5
8
330
0
100
AcDbSymbolTable
 70
     4
  0
VPORT
  5
2E
330
8
100
AcDbSymbolTableRecord
100
AcDbViewportTableRecord
  2
*ACTIVE
 70
     0
 10
0.0
 20
0.0
 11
1.0
 21
1.0
 12
210.0
 22
148.5
 13
0.0
 23
0.0
 14
10.0
 24
10.0
 15
10.0
 25
10.0
 16
0.0
 26
0.0
 36
1.0
 17
0.0
 27
0.0
 37
0.0
 40
341.0
 41
1.24
 42
50.0
 43
0.0
 44
0.0
 50
0.0
 51
0.0
 71
     0
 72
   100
 73
     1
 74
     3
 75
     0
 76
     0
 77
     0
 78
     0
  0
ENDTAB
  0
TABLE
  2
LTYPE
  5
5
330
0
100
AcDbSymbolTable
 70
     1
  0
LTYPE
  5
14
330
5
100
AcDbSymbolTableRecord
100
AcDbLinetypeTableRecord
  2
BYBLOCK
 70
     0
  3

 72
    65
 73
     0
 40
0.0
  0
LTYPE
  5
15
330
5
100
AcDbSymbolTableRecord
100
AcDbLinetypeTableRecord
  2
BYLAYER
 70
     0
  3

 72
    65
 73
     0
 40
0.0
  0
LTYPE
  5
16
330
5
100
AcDbSymbolTableRecord
100
AcDbLinetypeTableRecord
  2
CONTINUOUS
 70
     0
  3
Solid line
 72
    65
 73
     0
 40
0.0
  0
ENDTAB
  0
TABLE
  2
LAYER
  5
2
100
AcDbSymbolTable
 70
2
  0
LAYER
  5
50
100
AcDbSymbolTableRecord
100
AcDbLayerTableRecord
  2
0
 70
0
  6
CONTINUOUS
  0
LAYER
  5
51
100
AcDbSymbolTableRecord
100
AcDbLayerTableRecord
  2
Layer_1
 70
0
  6
CONTINUOUS
  0
ENDTAB
  0
TABLE
  2
STYLE
  5
3
330
0
100
AcDbSymbolTable
 70
     1
  0
STYLE
  5
11
330
3
100
AcDbSymbolTableRecord
100
AcDbTextStyleTableRecord
  2
STANDARD
 70
     0
 40
0.0
 41
1.0
 50
0.0
 71
     0
 42
2.5
  3
txt
  4

  0
ENDTAB
  0
TABLE
  2
VIEW
  5
6
330
0
100
AcDbSymbolTable
 70
     0
  0
ENDTAB
  0
TABLE
  2
UCS
  5
7
330
0
100
AcDbSymbolTable
 70
     0
  0
ENDTAB
  0
TABLE
  2
APPID
  5
9
330
0
100
AcDbSymbolTable
 70
     2
  0
APPID
  5
12
330
9
100
AcDbSymbolTableRecord
100
AcDbRegAppTableRecord
  2
ACAD
 70
     0
  0
ENDTAB
  0
TABLE
  2
DIMSTYLE
  5
A
330
0
100
AcDbSymbolTable
 70
     1
  0
DIMSTYLE
105
27
330
A
100
AcDbSymbolTableRecord
100
AcDbDimStyleTableRecord
  2
ISO-25
 70
     0
  3

  4

  5

  6

  7

 40
1.0
 41
2.5
 42
0.625
 43
3.75
 44
1.25
 45
0.0
 46
0.0
 47
0.0
 48
0.0
140
2.5
141
2.5
142
0.0
143
0.03937007874016
144
1.0
145
0.0
146
1.0
147
0.625
 71
     0
 72
     0
 73
     0
 74
     0
 75
     0
 76
     0
 77
     1
 78
     8
170
     0
171
     3
172
     1
173
     0
174
     0
175
     0
176
     0
177
     0
178
     0
270
     2
271
     2
272
     2
273
     2
274
     3
340
11
275
     0
280
     0
281
     0
282
     0
283
     0
284
     8
285
     0
286
     0
287
     3
288
     0
  0
ENDTAB
  0
TABLE
  2
BLOCK_RECORD
  5
1
330
0
100
AcDbSymbolTable
 70
     1
  0
BLOCK_RECORD
  5
1F
330
1
100
AcDbSymbolTableRecord
100
AcDbBlockTableRecord
  2
*MODEL_SPACE
  0
BLOCK_RECORD
  5
1B
330
1
100
AcDbSymbolTableRecord
100
AcDbBlockTableRecord
  2
*PAPER_SPACE
  0
ENDTAB
  0
ENDSEC
  0
SECTION
  2
BLOCKS
  0
BLOCK
  5
20
330
1F
100
AcDbEntity
  8
0
100
AcDbBlockBegin
  2
*MODEL_SPACE
 70
     0
 10
0.0
 20
0.0
 30
0.0
  3
*MODEL_SPACE
  1

  0
ENDBLK
  5
21
330
1F
100
AcDbEntity
  8
0
100
AcDbBlockEnd
  0
BLOCK
  5
1C
330
1B
100
AcDbEntity
 67
     1
  8
0
100
AcDbBlockBegin
  2
*PAPER_SPACE
  1

  0
ENDBLK
  5
1D
330
1B
100
AcDbEntity
 67
     1
  8
0
100
AcDbBlockEnd
  0
ENDSEC
  0
SECTION
  2
ENTITIES
  0
SPLINE
  5
100
100
AcDbEntity
  8
Layer_1
 62
7
100
AcDbSpline
 70
8
 71
3
 72
8
 73
4
 74
0
 40
0
 40
0
 40
0
 40
0
 40
1
 40
1
 40
1
 40
1
 10
49.333309
 20
111.456920
 30
0.0
 10
48.813069
 20
112.519650
 30
0.0
 10
48.093980
 20
113.445760
 30
0.0
 10
47.196767
 20
114.214720
 30
0.0
  0
SPLINE
  5
101
100
AcDbEntity
  8
Layer_1
 62
7
100
AcDbSpline
 70
8
 71
3
 72
8
 73
4
 74
0
 40
0
 40
0
 40
0
 40
0
 40
1
 40
1
 40
1
 40
1
 10
47.193658
 20
193.278070
 30
0.0
 10
47.762645
 20
193.913330
 30
0.0
 10
48.209304
 20
194.568140
 30
0.0
 10
48.530026
 20
195.234470
 30
0.0
  0
SPLINE
  5
102
100
AcDbEntity
  8
Layer_1
 62
7
100
AcDbSpline
 70
8
 71
3
 72
8
 73
4
 74
0
 40
0
 40
0
 40
0
 40
0
 40
1
 40
1
 40
1
 40
1
 10
126.350390
 20
116.630560
 30
0.0
 10
126.079650
 20
116.407960
 30
0.0
 10
125.824450
 20
116.177590
 30
0.0
 10
125.589650
 20
115.941810
 30
0.0
  0
SPLINE
  5
103
100
AcDbEntity
  8
Layer_1
 62
7
100
AcDbSpline
 70
8
 71
3
 72
8
 73
4
 74
0
 40
0
 40
0
 40
0
 40
0
 40
1
 40
1
 40
1
 40
1
 10
125.589650
 20
115.941810
 30
0.0
 10
124.545050
 20
114.892900
 30
0.0
 10
123.424170
 20
113.054800
 30
0.0
 10
122.740100
 20
111.430930
 30
0.0
  0
SPLINE
  5
104
100
AcDbEntity
  8
Layer_1
 62
7
100
AcDbSpline
 70
8
 71
3
 72
8
 73
4
 74
0
 40
0
 40
0
 40
0
 40
0
 40
1
 40
1
 40
1
 40
1
 10
123.349430
 20
195.243550
 30
0.0
 10
123.885840
 20
193.730190
 30
0.0
 10
124.887710
 20
192.008190
 30
0.0
 10
125.973530
 20
190.859690
 30
0.0
  0
SPLINE
  5
105
100
AcDbEntity
  8
Layer_1
 62
7
100
AcDbSpline
 70
8
 71
3
 72
8
 73
4
 74
0
 40
0
 40
0
 40
0
 40
0
 40
1
 40
1
 40
1
 40
1
 10
125.973530
 20
190.859690
 30
0.0
 10
126.090420
 20
190.736060
 30
0.0
 10
126.215320
 20
190.613070
 30
0.0
 10
126.347160
 20
190.491260
 30
0.0
  0
SPLINE
  5
106
100
AcDbEntity
  8
Layer_1
 62
7
100
AcDbSpline
 70
8
 71
3
 72
8
 73
4
 74
0
 40
0
 40
0
 40
0
 40
0
 40
1
 40
1
 40
1
 40
1
 10
47.211507
 20
188.535890
 30
0.0
 10
48.265168
 20
189.117910
 30
0.0
 10
49.216953
 20
189.786610
 30
0.0
 10
49.793300
 20
190.408580
 30
0.0
  0
SPLINE
  5
107
100
AcDbEntity
  8
Layer_1
 62
7
100
AcDbSpline
 70
8
 71
3
 72
8
 73
4
 74
0
 40
0
 40
0
 40
0
 40
0
 40
1
 40
1
 40
1
 40
1
 10
49.793300
 20
190.408580
 30
0.0
 10
50.863955
 20
191.564010
 30
0.0
 10
51.947308
 20
193.553340
 30
0.0
 10
52.561795
 20
195.241840
 30
0.0
  0
SPLINE
  5
108
100
AcDbEntity
  8
Layer_1
 62
7
100
AcDbSpline
 70
8
 71
3
 72
8
 73
4
 74
0
 40
0
 40
0
 40
0
 40
0
 40
1
 40
1
 40
1
 40
1
 10
53.208360
 20
111.433350
 30
0.0
 10
52.433739
 20
113.320170
 30
0.0
 10
51.096582
 20
115.531060
 30
0.0
 10
49.987542
 20
116.542470
 30
0.0
  0
SPLINE
  5
109
100
AcDbEntity
  8
Layer_1
 62
7
100
AcDbSpline
 70
8
 71
3
 72
8
 73
4
 74
0
 40
0
 40
0
 40
0
 40
0
 40
1
 40
1
 40
1
 40
1
 10
49.987542
 20
116.542470
 30
0.0
 10
49.208492
 20
117.252940
 30
0.0
 10
48.221292
 20
117.924700
 30
0.0
 10
47.193801
 20
118.478660
 30
0.0
  0
SPLINE
  5
10a
100
AcDbEntity
  8
Layer_1
 62
7
100
AcDbSpline
 70
8
 71
3
 72
8
 73
4
 74
0
 40
0
 40
0
 40
0
 40
0
 40
1
 40
1
 40
1
 40
1
 10
126.331800
 20
122.396530
 30
0.0
 10
126.120720
 20
122.278790
 30
0.0
 10
125.928010
 20
122.162790
 30
0.0
 10
125.759890
 20
122.050940
 30
0.0
  0
SPLINE
  5
10b
100
AcDbEntity
  8
Layer_1
 62
7
100
AcDbSpline
 70
8
 71
3
 72
8
 73
4
 74
0
 40
0
 40
0
 40
0
 40
0
 40
1
 40
1
 40
1
 40
1
 10
125.759890
 20
122.050940
 30
0.0
 10
121.524150
 20
119.232730
 30
0.0
 10
118.391870
 20
115.241690
 30
0.0
 10
117.361010
 20
111.443650
 30
0.0
  0
SPLINE
  5
10c
100
AcDbEntity
  8
Layer_1
 62
7
100
AcDbSpline
 70
8
 71
3
 72
8
 73
4
 74
0
 40
0
 40
0
 40
0
 40
0
 40
1
 40
1
 40
1
 40
1
 10
117.882860
 20
195.307460
 30
0.0
 10
118.145690
 20
194.087920
 30
0.0
 10
119.174990
 20
191.735370
 30
0.0
 10
120.051460
 20
190.446820
 30
0.0
  0
SPLINE
  5
10d
100
AcDbEntity
  8
Layer_1
 62
7
100
AcDbSpline
 70
8
 71
3
 72
8
 73
4
 74
0
 40
0
 40
0
 40
0
 40
0
 40
1
 40
1
 40
1
 40
1
 10
120.051460
 20
190.446820
 30
0.0
 10
121.752340
 20
187.946240
 30
0.0
 10
123.993590
 20
185.840400
 30
0.0
 10
126.389530
 20
184.395320
 30
0.0
  0
SPLINE
  5
10e
100
AcDbEntity
  8
Layer_1
 62
7
100
AcDbSpline
 70
8
 71
3
 72
8
 73
4
 74
0
 40
0
 40
0
 40
0
 40
0
 40
1
 40
1
 40
1
 40
1
 10
47.179524
 20
182.894700
 30
0.0
 10
51.929364
 20
185.012570
 30
0.0
 10
56.860409
 20
190.530910
 30
0.0
 10
57.805868
 20
195.239610
 30
0.0
  0
SPLINE
  5
10f
100
AcDbEntity
  8
Layer_1
 62
7
100
AcDbSpline
 70
8
 71
3
 72
8
 73
4
 74
0
 40
0
 40
0
 40
0
 40
0
 40
1
 40
1
 40
1
 40
1
 10
58.525529
 20
111.423350
 30
0.0
 10
58.146657
 20
112.720810
 30
0.0
 10
57.214823
 20
114.740650
 30
0.0
 10
56.340473
 20
116.049070
 30
0.0
  0
SPLINE
  5
110
100
AcDbEntity
  8
Layer_1
 62
7
100
AcDbSpline
 70
8
 71
3
 72
8
 73
4
 74
0
 40
0
 40
0
 40
0
 40
0
 40
1
 40
1
 40
1
 40
1
 10
56.340473
 20
116.049070
 30
0.0
 10
55.686291
 20
117.028010
 30
0.0
 10
54.055965
 20
118.839610
 30
0.0
 10
52.717528
 20
120.074840
 30
0.0
  0
SPLINE
  5
111
100
AcDbEntity
  8
Layer_1
 62
7
100
AcDbSpline
 70
8
 71
3
 72
8
 73
4
 74
0
 40
0
 40
0
 40
0
 40
0
 40
1
 40
1
 40
1
 40
1
 10
52.717528
 20
120.074840
 30
0.0
 10
50.851094
 20
121.797360
 30
0.0
 10
49.188307
 20
122.945370
 30
0.0
 10
47.219862
 20
123.747460
 30
0.0
  0
SPLINE
  5
112
100
AcDbEntity
  8
Layer_1
 62
7
100
AcDbSpline
 70
8
 71
3
 72
8
 73
4
 74
0
 40
0
 40
0
 40
0
 40
0
 40
1
 40
1
 40
1
 40
1
 10
61.469932
 20
111.439300
 30
0.0
 10
60.919892
 20
113.853900
 30
0.0
 10
59.383099
 20
116.634310
 30
0.0
 10
56.878760
 20
119.740480
 30
0.0
  0
SPLINE
  5
113
100
AcDbEntity
  8
Layer_1
 62
7
100
AcDbSpline
 70
8
 71
3
 72
8
 73
4
 74
0
 40
0
 40
0
 40
0
 40
0
 40
1
 40
1
 40
1
 40
1
 10
56.878760
 20
119.740480
 30
0.0
 10
54.574620
 20
122.598350
 30
0.0
 10
50.712923
 20
125.283230
 30
0.0
 10
47.173097
 20
126.717200
 30
0.0
  0
SPLINE
  5
114
100
AcDbEntity
  8
Layer_1
 62
7
100
AcDbSpline
 70
8
 71
3
 72
8
 73
4
 74
0
 40
0
 40
0
 40
0
 40
0
 40
1
 40
1
 40
1
 40
1
 10
126.390900
 20
125.327250
 30
0.0
 10
124.917270
 20
124.592300
 30
0.0
 10
123.455490
 20
123.713570
 30
0.0
 10
122.236310
 20
122.783500
 30
0.0
  0
SPLINE
  5
115
100
AcDbEntity
  8
Layer_1
 62
7
100
AcDbSpline
 70
8
 71
3
 72
8
 73
4
 74
0
 40
0
 40
0
 40
0
 40
0
 40
1
 40
1
 40
1
 40
1
 10
122.236310
 20
122.783500
 30
0.0
 10
118.534630
 20
119.959640
 30
0.0
 10
115.321740
 20
115.257950
 30
0.0
 10
114.303350
 20
111.435830
 30
0.0
  0
SPLINE
  5
116
100
AcDbEntity
  8
Layer_1
 62
7
100
AcDbSpline
 70
8
 71
3
 72
8
 73
4
 74
0
 40
0
 40
0
 40
0
 40
0
 40
1
 40
1
 40
1
 40
1
 10
114.945700
 20
195.257390
 30
0.0
 10
115.232400
 20
194.066470
 30
0.0
 10
115.748260
 20
192.674920
 30
0.0
 10
116.415220
 20
191.380510
 30
0.0
  0
SPLINE
  5
117
100
AcDbEntity
  8
Layer_1
 62
7
100
AcDbSpline
 70
8
 71
3
 72
8
 73
4
 74
0
 40
0
 40
0
 40
0
 40
0
 40
1
 40
1
 40
1
 40
1
 10
116.415220
 20
191.380510
 30
0.0
 10
118.684840
 20
186.975700
 30
0.0
 10
121.959580
 20
183.681080
 30
0.0
 10
126.385780
 20
181.351990
 30
0.0
  0
SPLINE
  5
118
100
AcDbEntity
  8
Layer_1
 62
7
100
AcDbSpline
 70
8
 71
3
 72
8
 73
4
 74
0
 40
0
 40
0
 40
0
 40
0
 40
1
 40
1
 40
1
 40
1
 10
47.172145
 20
179.998910
 30
0.0
 10
47.914354
 20
180.300530
 30
0.0
 10
48.675145
 20
180.657370
 30
0.0
 10
49.420656
 20
181.059450
 30
0.0
  0
SPLINE
  5
119
100
AcDbEntity
  8
Layer_1
 62
7
100
AcDbSpline
 70
8
 71
3
 72
8
 73
4
 74
0
 40
0
 40
0
 40
0
 40
0
 40
1
 40
1
 40
1
 40
1
 10
49.420656
 20
181.059450
 30
0.0
 10
54.029335
 20
183.545050
 30
0.0
 10
58.947307
 20
189.152800
 30
0.0
 10
60.413226
 20
193.593790
 30
0.0
  0
SPLINE
  5
11a
100
AcDbEntity
  8
Layer_1
 62
7
100
AcDbSpline
 70
8
 71
3
 72
8
 73
4
 74
0
 40
0
 40
0
 40
0
 40
0
 40
1
 40
1
 40
1
 40
1
 10
60.413226
 20
193.593790
 30
0.0
 10
60.587126
 20
194.120620
 30
0.0
 10
60.733633
 20
194.688240
 30
0.0
 10
60.845359
 20
195.236290
 30
0.0
  0
SPLINE
  5
11b
100
AcDbEntity
  8
Layer_1
 62
7
100
AcDbSpline
 70
8
 71
3
 72
8
 73
4
 74
0
 40
0
 40
0
 40
0
 40
0
 40
1
 40
1
 40
1
 40
1
 10
126.395000
 20
129.578030
 30
0.0
 10
124.825750
 20
128.835320
 30
0.0
 10
123.216570
 20
127.893540
 30
0.0
 10
121.853260
 20
126.887640
 30
0.0
  0
SPLINE
  5
11c
100
AcDbEntity
  8
Layer_1
 62
7
100
AcDbSpline
 70
8
 71
3
 72
8
 73
4
 74
0
 40
0
 40
0
 40
0
 40
0
 40
1
 40
1
 40
1
 40
1
 10
121.853260
 20
126.887640
 30
0.0
 10
119.235850
 20
124.956430
 30
0.0
 10
114.755930
 20
120.344540
 30
0.0
 10
112.973490
 20
117.746270
 30
0.0
  0
SPLINE
  5
11d
100
AcDbEntity
  8
Layer_1
 62
7
100
AcDbSpline
 70
8
 71
3
 72
8
 73
4
 74
0
 40
0
 40
0
 40
0
 40
0
 40
1
 40
1
 40
1
 40
1
 10
112.973490
 20
117.746270
 30
0.0
 10
111.601390
 20
115.746150
 30
0.0
 10
110.712850
 20
113.845640
 30
0.0
 10
110.097180
 20
111.466230
 30
0.0
  0
SPLINE
  5
11e
100
AcDbEntity
  8
Layer_1
 62
7
100
AcDbSpline
 70
8
 71
3
 72
8
 73
4
 74
0
 40
0
 40
0
 40
0
 40
0
 40
1
 40
1
 40
1
 40
1
 10
110.747630
 20
195.232120
 30
0.0
 10
111.760390
 20
190.735330
 30
0.0
 10
114.312200
 20
186.812650
 30
0.0
 10
119.061830
 20
182.344640
 30
0.0
  0
SPLINE
  5
11f
100
AcDbEntity
  8
Layer_1
 62
7
100
AcDbSpline
 70
8
 71
3
 72
8
 73
4
 74
0
 40
0
 40
0
 40
0
 40
0
 40
1
 40
1
 40
1
 40
1
 10
119.061830
 20
182.344640
 30
0.0
 10
121.652840
 20
179.907270
 30
0.0
 10
124.043980
 20
178.155670
 30
0.0
 10
126.396070
 20
176.997990
 30
0.0
  0
SPLINE
  5
120
100
AcDbEntity
  8
Layer_1
 62
7
100
AcDbSpline
 70
8
 71
3
 72
8
 73
4
 74
0
 40
0
 40
0
 40
0
 40
0
 40
1
 40
1
 40
1
 40
1
 10
47.185776
 20
175.781350
 30
0.0
 10
48.301244
 20
176.196260
 30
0.0
 10
49.380715
 20
176.692690
 30
0.0
 10
50.258930
 20
177.211100
 30
0.0
  0
SPLINE
  5
121
100
AcDbEntity
  8
Layer_1
 62
7
100
AcDbSpline
 70
8
 71
3
 72
8
 73
4
 74
0
 40
0
 40
0
 40
0
 40
0
 40
1
 40
1
 40
1
 40
1
 10
50.258930
 20
177.211100
 30
0.0
 10
56.408389
 20
180.841160
 30
0.0
 10
62.538724
 20
187.682960
 30
0.0
 10
64.323458
 20
192.907880
 30
0.0
  0
SPLINE
  5
122
100
AcDbEntity
  8
Layer_1
 62
7
100
AcDbSpline
 70
8
 71
3
 72
8
 73
4
 74
0
 40
0
 40
0
 40
0
 40
0
 40
1
 40
1
 40
1
 40
1
 10
64.323458
 20
192.907880
 30
0.0
 10
64.671573
 20
193.927010
 30
0.0
 10
64.966890
 20
194.970210
 30
0.0
 10
65.051879
 20
195.459250
 30
0.0
  0
SPLINE
  5
123
100
AcDbEntity
  8
Layer_1
 62
7
100
AcDbSpline
 70
8
 71
3
 72
8
 73
4
 74
0
 40
0
 40
0
 40
0
 40
0
 40
1
 40
1
 40
1
 40
1
 10
65.754507
 20
111.410080
 30
0.0
 10
65.353107
 20
113.201630
 30
0.0
 10
63.991133
 20
116.110440
 30
0.0
 10
62.571818
 20
118.171170
 30
0.0
  0
SPLINE
  5
124
100
AcDbEntity
  8
Layer_1
 62
7
100
AcDbSpline
 70
8
 71
3
 72
8
 73
4
 74
0
 40
0
 40
0
 40
0
 40
0
 40
1
 40
1
 40
1
 40
1
 10
62.571818
 20
118.171170
 30
0.0
 10
61.796626
 20
119.296690
 30
0.0
 10
59.662600
 20
121.689620
 30
0.0
 10
57.829535
 20
123.488780
 30
0.0
  0
SPLINE
  5
125
100
AcDbEntity
  8
Layer_1
 62
7
100
AcDbSpline
 70
8
 71
3
 72
8
 73
4
 74
0
 40
0
 40
0
 40
0
 40
0
 40
1
 40
1
 40
1
 40
1
 10
57.829535
 20
123.488780
 30
0.0
 10
53.867521
 20
127.377520
 30
0.0
 10
50.554912
 20
129.721820
 30
0.0
 10
47.180387
 20
130.938650
 30
0.0
  0
SPLINE
  5
126
100
AcDbEntity
  8
Layer_1
 62
7
100
AcDbSpline
 70
8
 71
3
 72
8
 73
4
 74
0
 40
0
 40
0
 40
0
 40
0
 40
1
 40
1
 40
1
 40
1
 10
68.415749
 20
111.438550
 30
0.0
 10
67.178492
 20
116.222170
 30
0.0
 10
62.950892
 20
122.137830
 30
0.0
 10
57.064646
 20
127.190420
 30
0.0
  0
SPLINE
  5
127
100
AcDbEntity
  8
Layer_1
 62
7
100
AcDbSpline
 70
8
 71
3
 72
8
 73
4
 74
0
 40
0
 40
0
 40
0
 40
0
 40
1
 40
1
 40
1
 40
1
 10
57.064646
 20
127.190420
 30
0.0
 10
53.496655
 20
130.253080
 30
0.0
 10
50.286060
 20
132.299970
 30
0.0
 10
47.179196
 20
133.469190
 30
0.0
  0
SPLINE
  5
128
100
AcDbEntity
  8
Layer_1
 62
7
100
AcDbSpline
 70
8
 71
3
 72
8
 73
4
 74
0
 40
0
 40
0
 40
0
 40
0
 40
1
 40
1
 40
1
 40
1
 10
126.396550
 20
132.206460
 30
0.0
 10
124.058420
 20
131.095650
 30
0.0
 10
121.654510
 20
129.479840
 30
0.0
 10
118.910700
 20
127.222710
 30
0.0
  0
SPLINE
  5
129
100
AcDbEntity
  8
Layer_1
 62
7
100
AcDbSpline
 70
8
 71
3
 72
8
 73
4
 74
0
 40
0
 40
0
 40
0
 40
0
 40
1
 40
1
 40
1
 40
1
 10
118.910700
 20
127.222710
 30
0.0
 10
112.972780
 20
122.338020
 30
0.0
 10
108.649620
 20
116.404240
 30
0.0
 10
107.311530
 20
111.440180
 30
0.0
  0
SPLINE
  5
12a
100
AcDbEntity
  8
Layer_1
 62
7
100
AcDbSpline
 70
8
 71
3
 72
8
 73
4
 74
0
 40
0
 40
0
 40
0
 40
0
 40
1
 40
1
 40
1
 40
1
 10
108.058930
 20
195.237390
 30
0.0
 10
109.028890
 20
190.824280
 30
0.0
 10
111.974070
 20
186.235860
 30
0.0
 10
116.942140
 20
181.392130
 30
0.0
  0
SPLINE
  5
12b
100
AcDbEntity
  8
Layer_1
 62
7
100
AcDbSpline
 70
8
 71
3
 72
8
 73
4
 74
0
 40
0
 40
0
 40
0
 40
0
 40
1
 40
1
 40
1
 40
1
 10
116.942140
 20
181.392130
 30
0.0
 10
120.301100
 20
178.117250
 30
0.0
 10
123.284370
 20
175.895560
 30
0.0
 10
126.393720
 20
174.448560
 30
0.0
  0
SPLINE
  5
12c
100
AcDbEntity
  8
Layer_1
 62
7
100
AcDbSpline
 70
8
 71
3
 72
8
 73
4
 74
0
 40
0
 40
0
 40
0
 40
0
 40
1
 40
1
 40
1
 40
1
 10
47.172407
 20
173.171020
 30
0.0
 10
51.367743
 20
174.863800
 30
0.0
 10
56.180382
 20
178.235770
 30
0.0
 10
59.808052
 20
182.216320
 30
0.0
  0
SPLINE
  5
12d
100
AcDbEntity
  8
Layer_1
 62
7
100
AcDbSpline
 70
8
 71
3
 72
8
 73
4
 74
0
 40
0
 40
0
 40
0
 40
0
 40
1
 40
1
 40
1
 40
1
 10
59.808052
 20
182.216320
 30
0.0
 10
64.310914
 20
187.157210
 30
0.0
 10
66.775089
 20
191.247070
 30
0.0
 10
67.618436
 20
195.236490
 30
0.0
  0
SPLINE
  5
12e
100
AcDbEntity
  8
Layer_1
 62
7
100
AcDbSpline
 70
8
 71
3
 72
8
 73
4
 74
0
 40
0
 40
0
 40
0
 40
0
 40
1
 40
1
 40
1
 40
1
 10
71.371084
 20
111.442810
 30
0.0
 10
70.109107
 20
115.967620
 30
0.0
 10
66.758950
 20
120.729960
 30
0.0
 10
60.740766
 20
126.597510
 30
0.0
  0
SPLINE
  5
12f
100
AcDbEntity
  8
Layer_1
 62
7
100
AcDbSpline
 70
8
 71
3
 72
8
 73
4
 74
0
 40
0
 40
0
 40
0
 40
0
 40
1
 40
1
 40
1
 40
1
 10
60.740766
 20
126.597510
 30
0.0
 10
55.538341
 20
131.669730
 30
0.0
 10
51.251472
 20
134.760680
 30
0.0
 10
47.177280
 20
136.313660
 30
0.0
  0
SPLINE
  5
130
100
AcDbEntity
  8
Layer_1
 62
7
100
AcDbSpline
 70
8
 71
3
 72
8
 73
4
 74
0
 40
0
 40
0
 40
0
 40
0
 40
1
 40
1
 40
1
 40
1
 10
126.395260
 20
134.930010
 30
0.0
 10
123.073990
 20
133.384830
 30
0.0
 10
119.755960
 20
130.952150
 30
0.0
 10
115.834300
 20
127.291550
 30
0.0
  0
SPLINE
  5
131
100
AcDbEntity
  8
Layer_1
 62
7
100
AcDbSpline
 70
8
 71
3
 72
8
 73
4
 74
0
 40
0
 40
0
 40
0
 40
0
 40
1
 40
1
 40
1
 40
1
 10
115.834300
 20
127.291550
 30
0.0
 10
109.353860
 20
121.242510
 30
0.0
 10
105.556740
 20
116.003830
 30
0.0
 10
104.355950
 20
111.445150
 30
0.0
  0
SPLINE
  5
132
100
AcDbEntity
  8
Layer_1
 62
7
100
AcDbSpline
 70
8
 71
3
 72
8
 73
4
 74
0
 40
0
 40
0
 40
0
 40
0
 40
1
 40
1
 40
1
 40
1
 10
105.276920
 20
195.245420
 30
0.0
 10
106.567670
 20
189.874720
 30
0.0
 10
110.980210
 20
183.625860
 30
0.0
 10
117.668120
 20
177.727120
 30
0.0
  0
SPLINE
  5
133
100
AcDbEntity
  8
Layer_1
 62
7
100
AcDbSpline
 70
8
 71
3
 72
8
 73
4
 74
0
 40
0
 40
0
 40
0
 40
0
 40
1
 40
1
 40
1
 40
1
 10
117.668120
 20
177.727120
 30
0.0
 10
120.720620
 20
175.034830
 30
0.0
 10
123.578070
 20
173.055470
 30
0.0
 10
126.396370
 20
171.706910
 30
0.0
  0
SPLINE
  5
134
100
AcDbEntity
  8
Layer_1
 62
7
100
AcDbSpline
 70
8
 71
3
 72
8
 73
4
 74
0
 40
0
 40
0
 40
0
 40
0
 40
1
 40
1
 40
1
 40
1
 10
47.177212
 20
170.326640
 30
0.0
 10
51.458752
 20
172.061210
 30
0.0
 10
56.146269
 20
175.464230
 30
0.0
 10
60.893587
 20
180.322440
 30
0.0
  0
SPLINE
  5
135
100
AcDbEntity
  8
Layer_1
 62
7
100
AcDbSpline
 70
8
 71
3
 72
8
 73
4
 74
0
 40
0
 40
0
 40
0
 40
0
 40
1
 40
1
 40
1
 40
1
 10
60.893587
 20
180.322440
 30
0.0
 10
66.310579
 20
185.865970
 30
0.0
 10
69.478573
 20
190.789890
 30
0.0
 10
70.485302
 20
195.240340
 30
0.0
  0
SPLINE
  5
136
100
AcDbEntity
  8
Layer_1
 62
7
100
AcDbSpline
 70
8
 71
3
 72
8
 73
4
 74
0
 40
0
 40
0
 40
0
 40
0
 40
1
 40
1
 40
1
 40
1
 10
74.410358
 20
111.442420
 30
0.0
 10
73.114300
 20
115.835860
 30
0.0
 10
69.182078
 20
121.173770
 30
0.0
 10
62.329648
 20
127.874180
 30
0.0
  0
SPLINE
  5
137
100
AcDbEntity
  8
Layer_1
 62
7
100
AcDbSpline
 70
8
 71
3
 72
8
 73
4
 74
0
 40
0
 40
0
 40
0
 40
0
 40
1
 40
1
 40
1
 40
1
 10
62.329648
 20
127.874180
 30
0.0
 10
56.429659
 20
133.643280
 30
0.0
 10
51.384624
 20
137.408270
 30
0.0
 10
47.176548
 20
139.180800
 30
0.0
  0
SPLINE
  5
138
100
AcDbEntity
  8
Layer_1
 62
7
100
AcDbSpline
 70
8
 71
3
 72
8
 73
4
 74
0
 40
0
 40
0
 40
0
 40
0
 40
1
 40
1
 40
1
 40
1
 10
126.399700
 20
137.620880
 30
0.0
 10
124.663450
 20
136.749130
 30
0.0
 10
122.837900
 20
135.610890
 30
0.0
 10
120.937100
 20
134.213080
 30
0.0
  0
SPLINE
  5
139
100
AcDbEntity
  8
Layer_1
 62
7
100
AcDbSpline
 70
8
 71
3
 72
8
 73
4
 74
0
 40
0
 40
0
 40
0
 40
0
 40
1
 40
1
 40
1
 40
1
 10
120.937100
 20
134.213080
 30
0.0
 10
114.961040
 20
129.818370
 30
0.0
 10
107.578230
 20
122.306830
 30
0.0
 10
104.136400
 20
117.119430
 30
0.0
  0
SPLINE
  5
13a
100
AcDbEntity
  8
Layer_1
 62
7
100
AcDbSpline
 70
8
 71
3
 72
8
 73
4
 74
0
 40
0
 40
0
 40
0
 40
0
 40
1
 40
1
 40
1
 40
1
 10
104.136400
 20
117.119430
 30
0.0
 10
102.685040
 20
114.932000
 30
0.0
 10
101.846320
 20
113.264300
 30
0.0
 10
101.332750
 20
111.449060
 30
0.0
  0
SPLINE
  5
13b
100
AcDbEntity
  8
Layer_1
 62
7
100
AcDbSpline
 70
8
 71
3
 72
8
 73
4
 74
0
 40
0
 40
0
 40
0
 40
0
 40
1
 40
1
 40
1
 40
1
 10
102.346420
 20
195.239090
 30
0.0
 10
103.555030
 20
190.390460
 30
0.0
 10
107.248310
 20
185.164760
 30
0.0
 10
114.176760
 20
178.422010
 30
0.0
  0
SPLINE
  5
13c
100
AcDbEntity
  8
Layer_1
 62
7
100
AcDbSpline
 70
8
 71
3
 72
8
 73
4
 74
0
 40
0
 40
0
 40
0
 40
0
 40
1
 40
1
 40
1
 40
1
 10
114.176760
 20
178.422010
 30
0.0
 10
118.965050
 20
173.762070
 30
0.0
 10
122.835120
 20
170.729110
 30
0.0
 10
126.401690
 20
168.924850
 30
0.0
  0
SPLINE
  5
13d
100
AcDbEntity
  8
Layer_1
 62
7
100
AcDbSpline
 70
8
 71
3
 72
8
 73
4
 74
0
 40
0
 40
0
 40
0
 40
0
 40
1
 40
1
 40
1
 40
1
 10
47.173931
 20
167.380550
 30
0.0
 10
51.136471
 20
169.055730
 30
0.0
 10
55.770016
 20
172.559230
 30
0.0
 10
61.463452
 20
178.142810
 30
0.0
  0
SPLINE
  5
13e
100
AcDbEntity
  8
Layer_1
 62
7
100
AcDbSpline
 70
8
 71
3
 72
8
 73
4
 74
0
 40
0
 40
0
 40
0
 40
0
 40
1
 40
1
 40
1
 40
1
 10
61.463452
 20
178.142810
 30
0.0
 10
68.239304
 20
184.787930
 30
0.0
 10
72.160516
 20
190.427890
 30
0.0
 10
73.345514
 20
195.244030
 30
0.0
  0
SPLINE
  5
13f
100
AcDbEntity
  8
Layer_1
 62
7
100
AcDbSpline
 70
8
 71
3
 72
8
 73
4
 74
0
 40
0
 40
0
 40
0
 40
0
 40
1
 40
1
 40
1
 40
1
 10
78.186023
 20
111.441570
 30
0.0
 10
77.941450
 20
112.116000
 30
0.0
 10
77.650845
 20
112.803990
 30
0.0
 10
77.376261
 20
113.335590
 30
0.0
  0
SPLINE
  5
140
100
AcDbEntity
  8
Layer_1
 62
7
100
AcDbSpline
 70
8
 71
3
 72
8
 73
4
 74
0
 40
0
 40
0
 40
0
 40
0
 40
1
 40
1
 40
1
 40
1
 10
77.376261
 20
113.335590
 30
0.0
 10
73.367641
 20
121.096400
 30
0.0
 10
55.034112
 20
138.805640
 30
0.0
 10
47.158254
 20
142.601190
 30
0.0
  0
SPLINE
  5
141
100
AcDbEntity
  8
Layer_1
 62
7
100
AcDbSpline
 70
8
 71
3
 72
8
 73
4
 74
0
 40
0
 40
0
 40
0
 40
0
 40
1
 40
1
 40
1
 40
1
 10
126.411780
 20
140.852930
 30
0.0
 10
122.713590
 20
138.762780
 30
0.0
 10
117.878130
 20
134.845090
 30
0.0
 10
111.777300
 20
129.001040
 30
0.0
  0
SPLINE
  5
142
100
AcDbEntity
  8
Layer_1
 62
7
100
AcDbSpline
 70
8
 71
3
 72
8
 73
4
 74
0
 40
0
 40
0
 40
0
 40
0
 40
1
 40
1
 40
1
 40
1
 10
111.777300
 20
129.001040
 30
0.0
 10
103.648580
 20
121.214440
 30
0.0
 10
99.255627
 20
115.815390
 30
0.0
 10
97.563535
 20
111.443710
 30
0.0
  0
SPLINE
  5
143
100
AcDbEntity
  8
Layer_1
 62
7
100
AcDbSpline
 70
8
 71
3
 72
8
 73
4
 74
0
 40
0
 40
0
 40
0
 40
0
 40
1
 40
1
 40
1
 40
1
 10
99.048014
 20
195.239240
 30
0.0
 10
99.516006
 20
193.701430
 30
0.0
 10
100.204950
 20
192.040200
 30
0.0
 10
100.916950
 20
190.798880
 30
0.0
  0
SPLINE
  5
144
100
AcDbEntity
  8
Layer_1
 62
7
100
AcDbSpline
 70
8
 71
3
 72
8
 73
4
 74
0
 40
0
 40
0
 40
0
 40
0
 40
1
 40
1
 40
1
 40
1
 10
100.916950
 20
190.798880
 30
0.0
 10
105.009450
 20
183.663970
 30
0.0
 10
117.929700
 20
170.829000
 30
0.0
 10
125.656870
 20
166.222260
 30
0.0
  0
SPLINE
  5
145
100
AcDbEntity
  8
Layer_1
 62
7
100
AcDbSpline
 70
8
 71
3
 72
8
 73
4
 74
0
 40
0
 40
0
 40
0
 40
0
 40
1
 40
1
 40
1
 40
1
 10
125.656870
 20
166.222260
 30
0.0
 10
125.926810
 20
166.061330
 30
0.0
 10
126.185400
 20
165.910300
 30
0.0
 10
126.434580
 20
165.768400
 30
0.0
  0
SPLINE
  5
146
100
AcDbEntity
  8
Layer_1
 62
7
100
AcDbSpline
 70
8
 71
3
 72
8
 73
4
 74
0
 40
0
 40
0
 40
0
 40
0
 40
1
 40
1
 40
1
 40
1
 10
47.159929
 20
163.975460
 30
0.0
 10
50.742247
 20
165.752540
 30
0.0
 10
55.146131
 20
169.209290
 30
0.0
 10
60.980130
 20
174.752790
 30
0.0
  0
SPLINE
  5
147
100
AcDbEntity
  8
Layer_1
 62
7
100
AcDbSpline
 70
8
 71
3
 72
8
 73
4
 74
0
 40
0
 40
0
 40
0
 40
0
 40
1
 40
1
 40
1
 40
1
 10
60.980130
 20
174.752790
 30
0.0
 10
69.927068
 20
183.254240
 30
0.0
 10
75.286391
 20
190.251420
 30
0.0
 10
76.701946
 20
195.262430
 30
0.0
  0
SPLINE
  5
148
100
AcDbEntity
  8
Layer_1
 62
7
100
AcDbSpline
 70
8
 71
3
 72
8
 73
4
 74
0
 40
0
 40
0
 40
0
 40
0
 40
1
 40
1
 40
1
 40
1
 10
126.446960
 20
144.797810
 30
0.0
 10
121.355250
 20
141.101940
 30
0.0
 10
113.840760
 20
134.280310
 30
0.0
 10
103.330300
 20
123.856310
 30
0.0
  0
SPLINE
  5
149
100
AcDbEntity
  8
Layer_1
 62
7
100
AcDbSpline
 70
8
 71
3
 72
8
 73
4
 74
0
 40
0
 40
0
 40
0
 40
0
 40
1
 40
1
 40
1
 40
1
 10
103.330300
 20
123.856310
 30
0.0
 10
95.829268
 20
116.416980
 30
0.0
 10
92.215057
 20
112.753840
 30
0.0
 10
90.637574
 20
110.971030
 30
0.0
  0
SPLINE
  5
14a
100
AcDbEntity
  8
Layer_1
 62
7
100
AcDbSpline
 70
8
 71
3
 72
8
 73
4
 74
0
 40
0
 40
0
 40
0
 40
0
 40
1
 40
1
 40
1
 40
1
 10
94.268266
 20
195.256990
 30
0.0
 10
95.513811
 20
192.608380
 30
0.0
 10
98.296399
 20
188.789910
 30
0.0
 10
102.140430
 20
184.509730
 30
0.0
  0
SPLINE
  5
14b
100
AcDbEntity
  8
Layer_1
 62
7
100
AcDbSpline
 70
8
 71
3
 72
8
 73
4
 74
0
 40
0
 40
0
 40
0
 40
0
 40
1
 40
1
 40
1
 40
1
 10
102.140430
 20
184.509730
 30
0.0
 10
103.187220
 20
183.344180
 30
0.0
 10
106.719720
 20
179.737670
 30
0.0
 10
109.990420
 20
176.495280
 30
0.0
  0
SPLINE
  5
14c
100
AcDbEntity
  8
Layer_1
 62
7
100
AcDbSpline
 70
8
 71
3
 72
8
 73
4
 74
0
 40
0
 40
0
 40
0
 40
0
 40
1
 40
1
 40
1
 40
1
 10
109.990420
 20
176.495280
 30
0.0
 10
116.856580
 20
169.688550
 30
0.0
 10
122.335480
 20
164.783600
 30
0.0
 10
126.425310
 20
161.781850
 30
0.0
  0
SPLINE
  5
14d
100
AcDbEntity
  8
Layer_1
 62
7
100
AcDbSpline
 70
8
 71
3
 72
8
 73
4
 74
0
 40
0
 40
0
 40
0
 40
0
 40
1
 40
1
 40
1
 40
1
 10
47.274541
 20
159.111080
 30
0.0
 10
47.722476
 20
159.459110
 30
0.0
 10
48.142541
 20
159.797440
 30
0.0
 10
48.508799
 20
160.108140
 30
0.0
  0
SPLINE
  5
14e
100
AcDbEntity
  8
Layer_1
 62
7
100
AcDbSpline
 70
8
 71
3
 72
8
 73
4
 74
0
 40
0
 40
0
 40
0
 40
0
 40
1
 40
1
 40
1
 40
1
 10
48.508799
 20
160.108140
 30
0.0
 10
51.321904
 20
162.494530
 30
0.0
 10
60.723793
 20
171.299140
 30
0.0
 10
64.650030
 20
175.223960
 30
0.0
  0
SPLINE
  5
14f
100
AcDbEntity
  8
Layer_1
 62
7
100
AcDbSpline
 70
8
 71
3
 72
8
 73
4
 74
0
 40
0
 40
0
 40
0
 40
0
 40
1
 40
1
 40
1
 40
1
 10
64.650030
 20
175.223960
 30
0.0
 10
74.358773
 20
184.929210
 30
0.0
 10
79.657136
 20
191.245470
 30
0.0
 10
81.404516
 20
195.243080
 30
0.0
  0
SPLINE
  5
150
100
AcDbEntity
  8
Layer_1
 62
7
100
AcDbSpline
 70
8
 71
3
 72
8
 73
4
 74
0
 40
0
 40
0
 40
0
 40
0
 40
1
 40
1
 40
1
 40
1
 10
84.961465
 20
111.064680
 30
0.0
 10
84.382451
 20
111.718600
 30
0.0
 10
83.561179
 20
112.598210
 30
0.0
 10
82.730721
 20
113.446170
 30
0.0
  0
SPLINE
  5
151
100
AcDbEntity
  8
Layer_1
 62
7
100
AcDbSpline
 70
8
 71
3
 72
8
 73
4
 74
0
 40
0
 40
0
 40
0
 40
0
 40
1
 40
1
 40
1
 40
1
 10
82.730721
 20
113.446170
 30
0.0
 10
81.360920
 20
114.844840
 30
0.0
 10
78.572455
 20
117.705750
 30
0.0
 10
76.534129
 20
119.803750
 30
0.0
  0
SPLINE
  5
152
100
AcDbEntity
  8
Layer_1
 62
7
100
AcDbSpline
 70
8
 71
3
 72
8
 73
4
 74
0
 40
0
 40
0
 40
0
 40
0
 40
1
 40
1
 40
1
 40
1
 10
76.534129
 20
119.803750
 30
0.0
 10
71.281682
 20
125.209960
 30
0.0
 10
57.296331
 20
138.671440
 30
0.0
 10
52.323331
 20
143.107640
 30
0.0
  0
SPLINE
  5
153
100
AcDbEntity
  8
Layer_1
 62
7
100
AcDbSpline
 70
8
 71
3
 72
8
 73
4
 74
0
 40
0
 40
0
 40
0
 40
0
 40
1
 40
1
 40
1
 40
1
 10
52.323331
 20
143.107640
 30
0.0
 10
50.162900
 20
145.034870
 30
0.0
 10
48.404563
 20
146.554070
 30
0.0
 10
46.976583
 20
147.718750
 30
0.0
  0
SPLINE
  5
154
100
AcDbEntity
  8
Layer_1
 62
7
100
AcDbSpline
 70
8
 71
3
 72
8
 73
4
 74
0
 40
0
 40
0
 40
0
 40
0
 40
1
 40
1
 40
1
 40
1
 10
84.676181
 20
118.520750
 30
0.0
 10
81.138903
 20
119.938680
 30
0.0
 10
77.763484
 20
122.530220
 30
0.0
 10
69.718301
 20
130.004900
 30
0.0
  0
SPLINE
  5
155
100
AcDbEntity
  8
Layer_1
 62
7
100
AcDbSpline
 70
8
 71
3
 72
8
 73
4
 74
0
 40
0
 40
0
 40
0
 40
0
 40
1
 40
1
 40
1
 40
1
 10
69.718301
 20
130.004900
 30
0.0
 10
63.714596
 20
135.582870
 30
0.0
 10
57.259337
 20
142.279640
 30
0.0
 10
54.669092
 20
145.617130
 30
0.0
  0
SPLINE
  5
156
100
AcDbEntity
  8
Layer_1
 62
7
100
AcDbSpline
 70
8
 71
3
 72
8
 73
4
 74
0
 40
0
 40
0
 40
0
 40
0
 40
1
 40
1
 40
1
 40
1
 10
54.669092
 20
145.617130
 30
0.0
 10
51.125054
 20
150.183580
 30
0.0
 10
50.423990
 20
153.451330
 30
0.0
 10
52.205234
 20
157.101540
 30
0.0
  0
SPLINE
  5
157
100
AcDbEntity
  8
Layer_1
 62
7
100
AcDbSpline
 70
8
 71
3
 72
8
 73
4
 74
0
 40
0
 40
0
 40
0
 40
0
 40
1
 40
1
 40
1
 40
1
 10
52.205234
 20
157.101540
 30
0.0
 10
54.004634
 20
160.788950
 30
0.0
 10
58.874864
 20
166.266530
 30
0.0
 10
70.374304
 20
177.536440
 30
0.0
  0
SPLINE
  5
158
100
AcDbEntity
  8
Layer_1
 62
7
100
AcDbSpline
 70
8
 71
3
 72
8
 73
4
 74
0
 40
0
 40
0
 40
0
 40
0
 40
1
 40
1
 40
1
 40
1
 10
70.374304
 20
177.536440
 30
0.0
 10
80.967969
 20
187.918630
 30
0.0
 10
84.371148
 20
190.443490
 30
0.0
 10
87.771269
 20
190.443490
 30
0.0
  0
SPLINE
  5
159
100
AcDbEntity
  8
Layer_1
 62
7
100
AcDbSpline
 70
8
 71
3
 72
8
 73
4
 74
0
 40
0
 40
0
 40
0
 40
0
 40
1
 40
1
 40
1
 40
1
 10
87.771269
 20
190.443490
 30
0.0
 10
91.319493
 20
190.443490
 30
0.0
 10
93.641706
 20
188.777250
 30
0.0
 10
104.310670
 20
178.576020
 30
0.0
  0
SPLINE
  5
15a
100
AcDbEntity
  8
Layer_1
 62
7
100
AcDbSpline
 70
8
 71
3
 72
8
 73
4
 74
0
 40
0
 40
0
 40
0
 40
0
 40
1
 40
1
 40
1
 40
1
 10
104.310670
 20
178.576020
 30
0.0
 10
112.073090
 20
171.153920
 30
0.0
 10
120.497490
 20
162.506430
 30
0.0
 10
122.516120
 20
159.888470
 30
0.0
  0
SPLINE
  5
15b
100
AcDbEntity
  8
Layer_1
 62
7
100
AcDbSpline
 70
8
 71
3
 72
8
 73
4
 74
0
 40
0
 40
0
 40
0
 40
0
 40
1
 40
1
 40
1
 40
1
 10
122.516120
 20
159.888470
 30
0.0
 10
124.515120
 20
157.295970
 30
0.0
 10
125.645900
 20
154.910510
 30
0.0
 10
125.645900
 20
153.285980
 30
0.0
  0
SPLINE
  5
15c
100
AcDbEntity
  8
Layer_1
 62
7
100
AcDbSpline
 70
8
 71
3
 72
8
 73
4
 74
0
 40
0
 40
0
 40
0
 40
0
 40
1
 40
1
 40
1
 40
1
 10
125.645900
 20
153.285980
 30
0.0
 10
125.645900
 20
151.806050
 30
0.0
 10
124.557650
 20
149.394890
 30
0.0
 10
122.776920
 20
146.929410
 30
0.0
  0
SPLINE
  5
15d
100
AcDbEntity
  8
Layer_1
 62
7
100
AcDbSpline
 70
8
 71
3
 72
8
 73
4
 74
0
 40
0
 40
0
 40
0
 40
0
 40
1
 40
1
 40
1
 40
1
 10
122.776920
 20
146.929410
 30
0.0
 10
122.047320
 20
145.919270
 30
0.0
 10
117.927630
 20
141.613920
 30
0.0
 10
113.622070
 20
137.361970
 30
0.0
  0
SPLINE
  5
15e
100
AcDbEntity
  8
Layer_1
 62
7
100
AcDbSpline
 70
8
 71
3
 72
8
 73
4
 74
0
 40
0
 40
0
 40
0
 40
0
 40
1
 40
1
 40
1
 40
1
 10
113.622070
 20
137.361970
 30
0.0
 10
95.481394
 20
119.447230
 30
0.0
 10
90.482370
 20
116.193310
 30
0.0
 10
84.676181
 20
118.520750
 30
0.0
  0
SPLINE
  5
15f
100
AcDbEntity
  8
Layer_1
 62
7
100
AcDbSpline
 70
8
 71
3
 72
8
 73
4
 74
0
 40
0
 40
0
 40
0
 40
0
 40
1
 40
1
 40
1
 40
1
 10
84.492523
 20
123.727290
 30
0.0
 10
79.916525
 20
125.169710
 30
0.0
 10
74.752219
 20
128.983130
 30
0.0
 10
67.502172
 20
136.273250
 30
0.0
  0
SPLINE
  5
160
100
AcDbEntity
  8
Layer_1
 62
7
100
AcDbSpline
 70
8
 71
3
 72
8
 73
4
 74
0
 40
0
 40
0
 40
0
 40
0
 40
1
 40
1
 40
1
 40
1
 10
67.502172
 20
136.273250
 30
0.0
 10
57.205465
 20
146.626870
 30
0.0
 10
54.901296
 20
152.315760
 30
0.0
 10
58.328444
 20
158.922790
 30
0.0
  0
SPLINE
  5
161
100
AcDbEntity
  8
Layer_1
 62
7
100
AcDbSpline
 70
8
 71
3
 72
8
 73
4
 74
0
 40
0
 40
0
 40
0
 40
0
 40
1
 40
1
 40
1
 40
1
 10
58.328444
 20
158.922790
 30
0.0
 10
60.316790
 20
162.756020
 30
0.0
 10
64.947398
 20
168.274390
 30
0.0
 10
70.846381
 20
173.840620
 30
0.0
  0
SPLINE
  5
162
100
AcDbEntity
  8
Layer_1
 62
7
100
AcDbSpline
 70
8
 71
3
 72
8
 73
4
 74
0
 40
0
 40
0
 40
0
 40
0
 40
1
 40
1
 40
1
 40
1
 10
70.846381
 20
173.840620
 30
0.0
 10
76.068415
 20
178.768070
 30
0.0
 10
79.409626
 20
181.374850
 30
0.0
 10
82.429146
 20
182.877380
 30
0.0
  0
SPLINE
  5
163
100
AcDbEntity
  8
Layer_1
 62
7
100
AcDbSpline
 70
8
 71
3
 72
8
 73
4
 74
0
 40
0
 40
0
 40
0
 40
0
 40
1
 40
1
 40
1
 40
1
 10
82.429146
 20
182.877380
 30
0.0
 10
84.815386
 20
184.064780
 30
0.0
 10
84.909155
 20
184.085920
 30
0.0
 10
87.790676
 20
184.085920
 30
0.0
  0
SPLINE
  5
164
100
AcDbEntity
  8
Layer_1
 62
7
100
AcDbSpline
 70
8
 71
3
 72
8
 73
4
 74
0
 40
0
 40
0
 40
0
 40
0
 40
1
 40
1
 40
1
 40
1
 10
87.790676
 20
184.085920
 30
0.0
 10
90.499221
 20
184.085920
 30
0.0
 10
90.875805
 20
184.015520
 30
0.0
 10
92.715265
 20
183.166240
 30
0.0
  0
SPLINE
  5
165
100
AcDbEntity
  8
Layer_1
 62
7
100
AcDbSpline
 70
8
 71
3
 72
8
 73
4
 74
0
 40
0
 40
0
 40
0
 40
0
 40
1
 40
1
 40
1
 40
1
 10
92.715265
 20
183.166240
 30
0.0
 10
96.238168
 20
181.539560
 30
0.0
 10
99.457896
 20
179.028420
 30
0.0
 10
105.608150
 20
173.110790
 30
0.0
  0
SPLINE
  5
166
100
AcDbEntity
  8
Layer_1
 62
7
100
AcDbSpline
 70
8
 71
3
 72
8
 73
4
 74
0
 40
0
 40
0
 40
0
 40
0
 40
1
 40
1
 40
1
 40
1
 10
105.608150
 20
173.110790
 30
0.0
 10
115.565460
 20
163.530070
 30
0.0
 10
119.555420
 20
157.858990
 30
0.0
 10
119.555420
 20
153.286990
 30
0.0
  0
SPLINE
  5
167
100
AcDbEntity
  8
Layer_1
 62
7
100
AcDbSpline
 70
8
 71
3
 72
8
 73
4
 74
0
 40
0
 40
0
 40
0
 40
0
 40
1
 40
1
 40
1
 40
1
 10
119.555420
 20
153.286990
 30
0.0
 10
119.555420
 20
150.839910
 30
0.0
 10
117.956450
 20
147.290010
 30
0.0
 10
115.259880
 20
143.750360
 30
0.0
  0
SPLINE
  5
168
100
AcDbEntity
  8
Layer_1
 62
7
100
AcDbSpline
 70
8
 71
3
 72
8
 73
4
 74
0
 40
0
 40
0
 40
0
 40
0
 40
1
 40
1
 40
1
 40
1
 10
115.259880
 20
143.750360
 30
0.0
 10
113.223210
 20
141.076920
 30
0.0
 10
107.786420
 20
135.473620
 30
0.0
 10
104.052030
 20
132.199270
 30
0.0
  0
SPLINE
  5
169
100
AcDbEntity
  8
Layer_1
 62
7
100
AcDbSpline
 70
8
 71
3
 72
8
 73
4
 74
0
 40
0
 40
0
 40
0
 40
0
 40
1
 40
1
 40
1
 40
1
 10
104.052030
 20
132.199270
 30
0.0
 10
95.029163
 20
124.287900
 30
0.0
 10
89.841885
 20
122.041090
 30
0.0
 10
84.492523
 20
123.727290
 30
0.0
  0
LWPOLYLINE
  5
16a
100
AcDbEntity
  8
Layer_1
 62
7
100
AcDbPolyline
 90
1
 70
1
 10
84.676181
 20
118.520750
 30
0.0
  0
SPLINE
  5
16b
100
AcDbEntity
  8
Layer_1
 62
7
100
AcDbSpline
 70
8
 71
3
 72
8
 73
4
 74
0
 40
0
 40
0
 40
0
 40
0
 40
1
 40
1
 40
1
 40
1
 10
84.347616
 20
128.249430
 30
0.0
 10
80.283883
 20
129.403360
 30
0.0
 10
75.849660
 20
132.424140
 30
0.0
 10
70.619649
 20
137.601510
 30
0.0
  0
SPLINE
  5
16c
100
AcDbEntity
  8
Layer_1
 62
7
100
AcDbSpline
 70
8
 71
3
 72
8
 73
4
 74
0
 40
0
 40
0
 40
0
 40
0
 40
1
 40
1
 40
1
 40
1
 10
70.619649
 20
137.601510
 30
0.0
 10
65.766749
 20
142.405580
 30
0.0
 10
62.791282
 20
146.825090
 30
0.0
 10
61.887471
 20
150.571570
 30
0.0
  0
SPLINE
  5
16d
100
AcDbEntity
  8
Layer_1
 62
7
100
AcDbSpline
 70
8
 71
3
 72
8
 73
4
 74
0
 40
0
 40
0
 40
0
 40
0
 40
1
 40
1
 40
1
 40
1
 10
61.887471
 20
150.571570
 30
0.0
 10
60.476765
 20
156.419220
 30
0.0
 10
63.741761
 20
162.668190
 30
0.0
 10
72.559918
 20
170.997910
 30
0.0
  0
SPLINE
  5
16e
100
AcDbEntity
  8
Layer_1
 62
7
100
AcDbSpline
 70
8
 71
3
 72
8
 73
4
 74
0
 40
0
 40
0
 40
0
 40
0
 40
1
 40
1
 40
1
 40
1
 10
72.559918
 20
170.997910
 30
0.0
 10
76.566681
 20
174.782740
 30
0.0
 10
80.457961
 20
177.547430
 30
0.0
 10
83.233273
 20
178.581160
 30
0.0
  0
SPLINE
  5
16f
100
AcDbEntity
  8
Layer_1
 62
7
100
AcDbSpline
 70
8
 71
3
 72
8
 73
4
 74
0
 40
0
 40
0
 40
0
 40
0
 40
1
 40
1
 40
1
 40
1
 10
83.233273
 20
178.581160
 30
0.0
 10
86.535577
 20
179.811200
 30
0.0
 10
90.455390
 20
179.619690
 30
0.0
 10
93.621619
 20
178.073630
 30
0.0
  0
SPLINE
  5
170
100
AcDbEntity
  8
Layer_1
 62
7
100
AcDbSpline
 70
8
 71
3
 72
8
 73
4
 74
0
 40
0
 40
0
 40
0
 40
0
 40
1
 40
1
 40
1
 40
1
 10
93.621619
 20
178.073630
 30
0.0
 10
100.266640
 20
174.828910
 30
0.0
 10
109.566980
 20
165.759910
 30
0.0
 10
112.976120
 20
159.200560
 30
0.0
  0
SPLINE
  5
171
100
AcDbEntity
  8
Layer_1
 62
7
100
AcDbSpline
 70
8
 71
3
 72
8
 73
4
 74
0
 40
0
 40
0
 40
0
 40
0
 40
1
 40
1
 40
1
 40
1
 10
112.976120
 20
159.200560
 30
0.0
 10
113.862540
 20
157.495050
 30
0.0
 10
114.633020
 20
154.745150
 30
0.0
 10
114.633020
 20
153.286990
 30
0.0
  0
SPLINE
  5
172
100
AcDbEntity
  8
Layer_1
 62
7
100
AcDbSpline
 70
8
 71
3
 72
8
 73
4
 74
0
 40
0
 40
0
 40
0
 40
0
 40
1
 40
1
 40
1
 40
1
 10
114.633020
 20
153.286990
 30
0.0
 10
114.633020
 20
149.136500
 30
0.0
 10
111.670380
 20
144.107170
 30
0.0
 10
105.682820
 20
138.093290
 30
0.0
  0
SPLINE
  5
173
100
AcDbEntity
  8
Layer_1
 62
7
100
AcDbSpline
 70
8
 71
3
 72
8
 73
4
 74
0
 40
0
 40
0
 40
0
 40
0
 40
1
 40
1
 40
1
 40
1
 10
105.682820
 20
138.093290
 30
0.0
 10
97.302979
 20
129.676630
 30
0.0
 10
90.452519
 20
126.515890
 30
0.0
 10
84.347616
 20
128.249430
 30
0.0
  0
LWPOLYLINE
  5
174
100
AcDbEntity
  8
Layer_1
 62
7
100
AcDbPolyline
 90
1
 70
1
 10
84.492523
 20
123.727290
 30
0.0
  0
SPLINE
  5
175
100
AcDbEntity
  8
Layer_1
 62
7
100
AcDbSpline
 70
8
 71
3
 72
8
 73
4
 74
0
 40
0
 40
0
 40
0
 40
0
 40
1
 40
1
 40
1
 40
1
 10
84.399488
 20
133.391140
 30
0.0
 10
80.719242
 20
134.414230
 30
0.0
 10
77.763492
 20
136.269210
 30
0.0
 10
74.060002
 20
139.879990
 30
0.0
  0
SPLINE
  5
176
100
AcDbEntity
  8
Layer_1
 62
7
100
AcDbSpline
 70
8
 71
3
 72
8
 73
4
 74
0
 40
0
 40
0
 40
0
 40
0
 40
1
 40
1
 40
1
 40
1
 10
74.060002
 20
139.879990
 30
0.0
 10
64.341788
 20
149.354980
 30
0.0
 10
64.438816
 20
157.585050
 30
0.0
 10
74.382432
 20
167.228660
 30
0.0
  0
SPLINE
  5
177
100
AcDbEntity
  8
Layer_1
 62
7
100
AcDbSpline
 70
8
 71
3
 72
8
 73
4
 74
0
 40
0
 40
0
 40
0
 40
0
 40
1
 40
1
 40
1
 40
1
 10
74.382432
 20
167.228660
 30
0.0
 10
77.265578
 20
170.024820
 30
0.0
 10
79.833608
 20
171.837730
 30
0.0
 10
82.608743
 20
173.036060
 30
0.0
  0
SPLINE
  5
178
100
AcDbEntity
  8
Layer_1
 62
7
100
AcDbSpline
 70
8
 71
3
 72
8
 73
4
 74
0
 40
0
 40
0
 40
0
 40
0
 40
1
 40
1
 40
1
 40
1
 10
82.608743
 20
173.036060
 30
0.0
 10
84.482196
 20
173.845030
 30
0.0
 10
84.881371
 20
173.911510
 30
0.0
 10
87.825371
 20
173.904890
 30
0.0
  0
SPLINE
  5
179
100
AcDbEntity
  8
Layer_1
 62
7
100
AcDbSpline
 70
8
 71
3
 72
8
 73
4
 74
0
 40
0
 40
0
 40
0
 40
0
 40
1
 40
1
 40
1
 40
1
 10
87.825371
 20
173.904890
 30
0.0
 10
90.467979
 20
173.898890
 30
0.0
 10
91.301027
 20
173.785900
 30
0.0
 10
92.695284
 20
173.244030
 30
0.0
  0
SPLINE
  5
17a
100
AcDbEntity
  8
Layer_1
 62
7
100
AcDbSpline
 70
8
 71
3
 72
8
 73
4
 74
0
 40
0
 40
0
 40
0
 40
0
 40
1
 40
1
 40
1
 40
1
 10
92.695284
 20
173.244030
 30
0.0
 10
95.344459
 20
172.214430
 30
0.0
 10
98.601366
 20
169.933100
 30
0.0
 10
101.603180
 20
167.004380
 30
0.0
  0
SPLINE
  5
17b
100
AcDbEntity
  8
Layer_1
 62
7
100
AcDbSpline
 70
8
 71
3
 72
8
 73
4
 74
0
 40
0
 40
0
 40
0
 40
0
 40
1
 40
1
 40
1
 40
1
 10
101.603180
 20
167.004380
 30
0.0
 10
111.731360
 20
157.122890
 30
0.0
 10
111.604870
 20
148.968770
 30
0.0
 10
101.174370
 20
139.360690
 30
0.0
  0
SPLINE
  5
17c
100
AcDbEntity
  8
Layer_1
 62
7
100
AcDbSpline
 70
8
 71
3
 72
8
 73
4
 74
0
 40
0
 40
0
 40
0
 40
0
 40
1
 40
1
 40
1
 40
1
 10
101.174370
 20
139.360690
 30
0.0
 10
97.429111
 20
135.910740
 30
0.0
 10
94.215236
 20
134.012290
 30
0.0
 10
90.785196
 20
133.223760
 30
0.0
  0
SPLINE
  5
17d
100
AcDbEntity
  8
Layer_1
 62
7
100
AcDbSpline
 70
8
 71
3
 72
8
 73
4
 74
0
 40
0
 40
0
 40
0
 40
0
 40
1
 40
1
 40
1
 40
1
 10
90.785196
 20
133.223760
 30
0.0
 10
88.419591
 20
132.679920
 30
0.0
 10
86.805720
 20
132.722220
 30
0.0
 10
84.399488
 20
133.391140
 30
0.0
  0
LWPOLYLINE
  5
17e
100
AcDbEntity
  8
Layer_1
 62
7
100
AcDbPolyline
 90
1
 70
1
 10
84.347616
 20
128.249430
 30
0.0
  0
SPLINE
  5
17f
100
AcDbEntity
  8
Layer_1
 62
7
100
AcDbSpline
 70
8
 71
3
 72
8
 73
4
 74
0
 40
0
 40
0
 40
0
 40
0
 40
1
 40
1
 40
1
 40
1
 10
84.637427
 20
140.245090
 30
0.0
 10
81.219183
 20
141.348670
 30
0.0
 10
77.268925
 20
144.719700
 30
0.0
 10
75.314572
 20
148.200930
 30
0.0
  0
SPLINE
  5
180
100
AcDbEntity
  8
Layer_1
 62
7
100
AcDbSpline
 70
8
 71
3
 72
8
 73
4
 74
0
 40
0
 40
0
 40
0
 40
0
 40
1
 40
1
 40
1
 40
1
 10
75.314572
 20
148.200930
 30
0.0
 10
74.217258
 20
150.155550
 30
0.0
 10
74.204179
 20
150.215490
 30
0.0
 10
74.204179
 20
153.291030
 30
0.0
  0
SPLINE
  5
181
100
AcDbEntity
  8
Layer_1
 62
7
100
AcDbSpline
 70
8
 71
3
 72
8
 73
4
 74
0
 40
0
 40
0
 40
0
 40
0
 40
1
 40
1
 40
1
 40
1
 10
74.204179
 20
153.291030
 30
0.0
 10
74.204179
 20
156.283450
 30
0.0
 10
74.243209
 20
156.479160
 30
0.0
 10
75.218523
 20
158.377080
 30
0.0
  0
SPLINE
  5
182
100
AcDbEntity
  8
Layer_1
 62
7
100
AcDbSpline
 70
8
 71
3
 72
8
 73
4
 74
0
 40
0
 40
0
 40
0
 40
0
 40
1
 40
1
 40
1
 40
1
 10
75.218523
 20
158.377080
 30
0.0
 10
76.635203
 20
161.133910
 30
0.0
 10
80.161961
 20
164.584810
 30
0.0
 10
82.892461
 20
165.885980
 30
0.0
  0
SPLINE
  5
183
100
AcDbEntity
  8
Layer_1
 62
7
100
AcDbSpline
 70
8
 71
3
 72
8
 73
4
 74
0
 40
0
 40
0
 40
0
 40
0
 40
1
 40
1
 40
1
 40
1
 10
82.892461
 20
165.885980
 30
0.0
 10
84.786211
 20
166.788430
 30
0.0
 10
85.101020
 20
166.849830
 30
0.0
 10
87.834308
 20
166.849830
 30
0.0
  0
SPLINE
  5
184
100
AcDbEntity
  8
Layer_1
 62
7
100
AcDbSpline
 70
8
 71
3
 72
8
 73
4
 74
0
 40
0
 40
0
 40
0
 40
0
 40
1
 40
1
 40
1
 40
1
 10
87.834308
 20
166.849830
 30
0.0
 10
90.631827
 20
166.849830
 30
0.0
 10
90.846741
 20
166.804930
 30
0.0
 10
92.988312
 20
165.772990
 30
0.0
  0
SPLINE
  5
185
100
AcDbEntity
  8
Layer_1
 62
7
100
AcDbSpline
 70
8
 71
3
 72
8
 73
4
 74
0
 40
0
 40
0
 40
0
 40
0
 40
1
 40
1
 40
1
 40
1
 10
92.988312
 20
165.772990
 30
0.0
 10
98.089976
 20
163.314720
 30
0.0
 10
101.874400
 20
157.997160
 30
0.0
 10
101.874400
 20
153.286990
 30
0.0
  0
SPLINE
  5
186
100
AcDbEntity
  8
Layer_1
 62
7
100
AcDbSpline
 70
8
 71
3
 72
8
 73
4
 74
0
 40
0
 40
0
 40
0
 40
0
 40
1
 40
1
 40
1
 40
1
 10
101.874400
 20
153.286990
 30
0.0
 10
101.874400
 20
148.671700
 30
0.0
 10
98.261088
 20
143.671220
 30
0.0
 10
93.100435
 20
141.144660
 30
0.0
  0
SPLINE
  5
187
100
AcDbEntity
  8
Layer_1
 62
7
100
AcDbSpline
 70
8
 71
3
 72
8
 73
4
 74
0
 40
0
 40
0
 40
0
 40
0
 40
1
 40
1
 40
1
 40
1
 10
93.100435
 20
141.144660
 30
0.0
 10
91.069422
 20
140.150310
 30
0.0
 10
90.584784
 20
140.029690
 30
0.0
 10
88.318522
 20
139.954510
 30
0.0
  0
SPLINE
  5
188
100
AcDbEntity
  8
Layer_1
 62
7
100
AcDbSpline
 70
8
 71
3
 72
8
 73
4
 74
0
 40
0
 40
0
 40
0
 40
0
 40
1
 40
1
 40
1
 40
1
 10
88.318522
 20
139.954510
 30
0.0
 10
86.772205
 20
139.903210
 30
0.0
 10
85.348246
 20
140.015710
 30
0.0
 10
84.637427
 20
140.245090
 30
0.0
  0
LWPOLYLINE
  5
189
100
AcDbEntity
  8
Layer_1
 62
7
100
AcDbPolyline
 90
1
 70
1
 10
84.399488
 20
133.391140
 30
0.0
  0
LWPOLYLINE
  5
18a
100
AcDbEntity
  8
Layer_1
 62
7
100
AcDbPolyline
 90
1
 70
1
 10
84.637427
 20
140.245090
 30
0.0
  0
ENDSEC
  0
SECTION
  2
OBJECTS
  0
DICTIONARY
  5
C
330
0
100
AcDbDictionary
  3
ACAD_GROUP
350
D
  3
ACAD_MLINESTYLE
350
17
  0
DICTIONARY
  5
D
330
C
100
AcDbDictionary
  0
DICTIONARY
  5
1A
330
C
100
AcDbDictionary
  0
DICTIONARY
  5
17
330
C
100
AcDbDictionary
  3
STANDARD
350
18
  0
DICTIONARY
  5
19
330
C
100
AcDbDictionary
  0
ENDSEC
  0
EOF
